# xmcd CD database file
#
# Track frame offsets:
#	150
#	24404
#	47346
#	61836
#	76770
#	89888
#	103360
#	116482
#	127533
#	140873
#	153569
#	168469
#	182234
#	195779
#	210039
#	224334
#	238756
#	252509
#	266729
#	279897
#	293370
#	307767
#	323054
#	337729
#	351661
#
# Disc length: 4866 seconds
#
# Revision: 0
# Processed by: cddbd v1.5.2PL0 Copyright (c) Steve Scherf et al.
# Submitted via: CDex 1.70beta2
#
DISCID=5f130019
DTITLE=Duke Ellington - The Real...Duke Ellington - CD2
DYEAR=2012
DGENRE=Jazz
TTITLE0=Ebony Rhapsody II
TTITLE1=Ebony Rhapsody
TTITLE2=Solitude
TTITLE3=Saddest Tale
TTITLE4=Moonlight Fiesta
TTITLE5=Prelude To A Kiss
TTITLE6=Hip Chic
TTITLE7=Buffet Flat
TTITLE8=Jazz Potpourri
TTITLE9=It On Toast
TTITLE10=In A Sentimental Mood
TTITLE11=Showboat Shuffle
TTITLE12=Merry-Go-Round
TTITLE13=I Don't Know Why I Love You So
TTITLE14=Isn't  LoveThe Strangest Thing?
TTITLE15=Clarinet Lament
TTITLE16=Echoes Of Harlem
TTITLE17=Trumpet In Spades
TTITLE18=Yearning For Love
TTITLE19=In A Jam
TTITLE20=Exposition Swing
TTITLE21=Uptown Downbeat
TTITLE22=Scattin At The Cotton Club
TTITLE23=Black Butterfly
TTITLE24=Battle Of Swing
EXTD=YEAR: 2012
EXTT0=
EXTT1=
EXTT2=
EXTT3=
EXTT4=
EXTT5=
EXTT6=
EXTT7=
EXTT8=
EXTT9=
EXTT10=
EXTT11=
EXTT12=
EXTT13=
EXTT14=
EXTT15=
EXTT16=
EXTT17=
EXTT18=
EXTT19=
EXTT20=
EXTT21=
EXTT22=
EXTT23=
EXTT24=
PLAYORDER=
